<svg version="1.1" viewBox="0 0 100 100" xmlns="http://www.w3.org/2000/svg">
  <circle cx="50" cy="50" r="46.3" style="stroke:#000;stroke-width:5.5;fill:#cde;"/>
  <circle cx="50" cy="50" r="30" style="fill:#000;"/>
  <path d="M99.283,50c0,27.065-21.943,48.997-48.999,48.997C23.219,98.996,1.277,77.064,1.277,50  c0-27.063,21.942-48.997,49.008-48.997C77.34,1.002,99.283,22.936,99.283,50L99.283,50z M47.029,65.352l-4.924,4.639v2.844  l8.18-4.379l8.168,4.379V69.99l-4.92-4.639V49.696l30.357,6.019v-2.762L53.533,37.047V22.689c0-1.791-1.455-3.249-3.249-3.249  c-1.798,0-3.256,1.458-3.256,3.249v14.358L16.667,52.953v2.762l30.361-6.019V65.352z" style="fill:#cde;transform:scale(0.88);transform-origin:50% 50%;"/>
</svg>
