<svg xmlns="http://www.w3.org/2000/svg" viewBox="0,0,670,790">
  <g transform="translate(12.887 11.415)" style="fill:#EDDB00;stroke:#000;stroke-width:3">
    <path d="M458.3 294l0 30l-17 0l0 -30z"/>
    <path d="M346.5 645l100 92 .5 25-116.5-31m-33.7-86l-100 92-.5 25 116.5-31"/>
    <path d="M322 766.3c16.3-71.5 31.2-142.8 33-213v-461c0-22.2-15-92-33.4-92s-33.3 69.8-33.2 92v461c1.7 70.2 16.6 141.5 33 213M356 227.5L639.6 479c2 2 5 11 4.8 27v41M558 404.5v-20.8"/>
    <rect width="29" height="30.8" x="532.1" y="351.1" rx="3.4" ry="3.7"/>
    <rect width="29" height="30.8" x="435.6" y="263.1" rx="3.4" ry="3.7"/>
    <path d="M355 385.6L464.6 421l179.6 105.3M441 294v7.3l.3 1.2V294zm-153.7-66.5L3.7 479c-2 2-5 11-5 27l.3 41m86.2-142.5v-20.8"/>
    <rect width="29" height="30.8" x="-111.2" y="351.1" rx="3.4" ry="3.7" transform="scale(-1 1)"/>
    <path d="M185 294v21l-.3 3.5V294z"/>
    <rect width="29" height="30.8" x="-207.7" y="263.1" rx="3.4" ry="3.7" transform="scale(-1 1)"/>
    <path d="M288.3 385.6L178.7 421-1 526.2M202.3 294v7.3l-.3 1.2V294z"/>
  </g>
</svg>
