<svg version="1.1" viewBox="0 0 100 100" xmlns="http://www.w3.org/2000/svg">
  <circle cx="50" cy="50" r="46.3" style="stroke:#000;stroke-width:5.5;fill:#cde;"/>
  <path d="M24.763,12.216h50.751v76.772H24.763V12.216z M27.079,19.866h2.096v-3.138h-2.096V19.866z M47.643,23.227h4.992v-8.271  h-4.992V23.227z M47.643,44.418h4.992v-8.27h-4.992V44.418z M27.079,27.044h2.096v-3.138h-2.096V27.044z M27.079,34.224h2.096  v-3.138h-2.096V34.224z M27.079,41.402h2.096v-3.138h-2.096V41.402z M27.079,48.582h2.096v-3.138h-2.096V48.582z M27.079,55.761  h2.096v-3.14h-2.096V55.761z M27.079,62.939h2.096V59.8h-2.096V62.939z M27.079,70.119h2.096v-3.141h-2.096V70.119z M27.079,77.297  h2.096v-3.139h-2.096V77.297z M27.079,84.477h2.096v-3.141h-2.096V84.477z M73.197,16.728h-2.092v3.138h2.092V16.728z   M73.197,23.907h-2.092v3.138h2.092V23.907z M73.197,31.085h-2.092v3.138h2.092V31.085z M73.197,38.264h-2.092v3.138h2.092V38.264z   M73.197,45.443h-2.092v3.138h2.092V45.443z M73.197,52.621h-2.092v3.14h2.092V52.621z M73.197,59.8h-2.092v3.14h2.092V59.8z   M73.197,66.979h-2.092v3.141h2.092V66.979z M73.197,74.158h-2.092v3.139h2.092V74.158z M73.197,81.336h-2.092v3.141h2.092V81.336z   M51.863,60.982v-7.625c0-0.952-0.773-1.725-1.727-1.725c-0.953,0-1.723,0.772-1.723,1.725v7.625l-3.024,1.582V61.68  c0-0.365-0.293-0.662-0.663-0.662c-0.364,0-0.663,0.297-0.663,0.662v1.579l-2.647,1.388v-0.312c0-0.367-0.298-0.664-0.663-0.664  c-0.368,0-0.663,0.297-0.663,0.664v1.008l-7.796,4.083v1.466l16.118-3.199v8.31L45.8,78.466v1.513l4.336-2.328l4.342,2.328v-1.513  l-2.615-2.465v-8.31l16.119,3.199v-1.466l-7.795-4.083v-1.008c0-0.367-0.299-0.664-0.663-0.664c-0.365,0-0.663,0.297-0.663,0.664  v0.312l-2.648-1.388V61.68c0-0.365-0.298-0.662-0.662-0.662c-0.368,0-0.664,0.297-0.664,0.662v0.885L51.863,60.982z" style="transform:scale(0.75);transform-origin: 50% 50%;"/>
</svg>
