<svg version="1.1" viewBox="0 0 100 100" xmlns="http://www.w3.org/2000/svg">
  <path d="M52.7,22.2l-4.4-4.5c-0.5-0.5-1.2-0.8-1.9-0.8c-0.7,0-1.4,0.3-2,0.8L39,22.9L23,18.8c-3.6-1.2-7.3-0.5-9.7,1.9l-3.8,3.8  l21.1,10.2c-0.5,1.6-0.5,3.1,0.2,3.8l0.6,0.6c0.4,0.4,1.1,0.6,1.9,0.6c1.4,0,3.2-0.6,4.9-1.4l8,3.9c-0.4,0.4-3.3,3.3-4.3,4.3  c-0.7,0.7-1.4,1.5-2,2.3L27.1,66.3l-10.8-1.6L12,68.9l5.9,5.9l7.2,7.2l5.9,5.9l4.2-4.2l-1.6-10.8l17.2-12.8c0.8-0.6,1.6-1.3,2.3-2  c1-1,3.9-3.8,4.3-4.3l3.5,7.3c-1.4,2.7-2.3,5.8-1,7l0.6,0.6c0.4,0.4,1.1,0.6,1.9,0.6c0.7,0,1.5-0.2,2.3-0.4l10.5,21.6l3.8-3.8  c2.4-2.4,3.1-6.1,1.9-9.7L77,60.5l5-4.9c1.1-1.1,1.1-2.8,0.1-3.9l-4.4-4.5c-0.5-0.5-1.2-0.8-1.9-0.8c-0.7,0-1.4,0.3-2,0.8l-0.2,0.2  l-1.9-7.6l11.6-11.6c3.6-3.6,9.5-14.7,6.4-17.8s-14.2,2.8-17.8,6.4L60.3,28.3l-7.9-2l0.2-0.2C53.7,25,53.8,23.2,52.7,22.2z" style="transform:rotate(-45deg) translate(-5px,5px);transform-origin: 50% 50%;fill:rgb(237,219,0);stroke:rgba(0,0,0,0.5);stroke-width:4;"/>
</svg>
