<svg version="1.1" viewBox="0 0 100 100" xmlns="http://www.w3.org/2000/svg">
  <g>
    <path d="M56.735,67.988c3.908-0.982,6.534-4.627,6.239-8.646l5.063-15.094H49.917h-18.11l5.057,15.094   c-0.299,4.02,2.331,7.664,6.239,8.646v15.152h6.814h6.818V67.988z"/>
    <path d="M49.917,14.067h0.4l0.375,3.308c0.6,0.18,1.112,0.57,1.454,1.103c0.784,1.231,0.429,2.86-0.797,3.647v2.638h3.719  c0.784,0,1.423,0.631,1.423,1.41v2.19h6.712l-2.247,11.771H49.917H38.882l-2.247-11.771h6.72v-2.19c0-0.779,0.628-1.41,1.415-1.41  h3.729v-2.638c-0.531-0.333-0.923-0.855-1.103-1.457c-0.432-1.389,0.358-2.874,1.76-3.293l0.362-3.308H49.917z M44.049,36.229  l-0.761-3.961h-2.892l0.76,3.961H44.049z M55.782,36.229h2.896l0.764-3.961h-2.896L55.782,36.229z M50.872,36.229l0.322-3.961  h-1.277H48.65l0.315,3.961h0.951H50.872z"/>
  </g>
</svg>
